<?xml version="1.0" encoding="utf-8"?>
<!-- Generator: Adobe Illustrator 22.0.1, SVG Export Plug-In . SVG Version: 6.00 Build 0)  -->
<svg version="1.1"
	 id="svg5123" inkscape:version="0.92.1 r15371" sodipodi:docname="baloon-icon.svg" xmlns:cc="http://creativecommons.org/ns#" xmlns:dc="http://purl.org/dc/elements/1.1/" xmlns:inkscape="http://www.inkscape.org/namespaces/inkscape" xmlns:rdf="http://www.w3.org/1999/02/22-rdf-syntax-ns#" xmlns:sodipodi="http://sodipodi.sourceforge.net/DTD/sodipodi-0.dtd" xmlns:svg="http://www.w3.org/2000/svg"
	 xmlns="http://www.w3.org/2000/svg" xmlns:xlink="http://www.w3.org/1999/xlink" x="0px" y="0px" viewBox="0 0 128 128"
	 style="enable-background:new 0 0 128 128;" xml:space="preserve">
<style type="text/css">
	.st0{fill:#159682;}
</style>
<sodipodi:namedview  bordercolor="#666666" borderopacity="1.0" id="base" inkscape:current-layer="layer1" inkscape:cx="21.292701" inkscape:cy="18.252335" inkscape:document-units="mm" inkscape:pageopacity="0.0" inkscape:pageshadow="2" inkscape:window-height="705" inkscape:window-maximized="1" inkscape:window-width="1366" inkscape:window-x="-8" inkscape:window-y="-8" inkscape:zoom="31.678384" pagecolor="#ffffff" showgrid="false" units="px">
	</sodipodi:namedview>
<g id="layer1" transform="translate(0,-288.53332)" inkscape:groupmode="layer" inkscape:label="Camada 1">
	<g id="g5676" transform="matrix(0.90846328,0,0,0.88918765,8.5221936,106.01973)">
		<g id="path5113">
			<path class="st0" d="M13.1,317.6c-0.4-0.4,3.8-2.4,4.4-16.4C2.1,289.3-7.6,276.7-9,268.1c-0.8-4.8-0.2-9-0.2-9
				c0.8-4.2,2.6-8.4,5.8-12.2c2.4-3.8,19.4-29.9,63.3-17c26.5,10,32.1,29.9,28.9,44.5C85,291.7,66.6,307.8,39.7,306
				c-2,2.6-4.8,6-9.4,8.4c-5.2,2.8-10.6,3-13.4,3.2 M37.3,235c-23.2,0-32.1,15-32.7,16l-0.4,0.4c-3.4,4.2-4.8,9-3.8,13.6
				c2.4,12.2,18,24.6,24,27.9l1.8,1.4l0.4,2.4c0.4,3.4,0.4,6.2-0.4,8.4c3.8-2.4,5.2-6.2,5.2-6.6l1-4.2l4.2,0.4
				c24.6,2.8,39.3-10.4,42.5-24c2.4-10.8-1.8-25.4-22.2-32.7C49.5,236,42.9,235,37.3,235z"/>
		</g>
		<g id="path5115">
			<path class="st0" d="M106.3,340.8c-11.8,0-18-9.4-20.2-15C47.7,329,38.7,304,38.7,303l9-3.4c0.4,1,7.6,19.8,41.1,15.6l4.2-0.4
				l1,4.2c0,0.4,1.4,4.2,3.8,7c-0.4-3.8-0.4-7.6,1.4-11.4l1-1.8l1.8-0.4c0,0,14.6-4.8,18.8-16.6c2.8-6.6,1.4-14.6-3.4-23.6l0,0
				c0,0-9-13.2-21.2-14.2l0.4-10c17.4,1,28.3,18,28.9,18.8c6.6,11.8,7.6,22.6,3.8,32.1c-5.2,12.8-17.4,18.8-22.6,21.2
				c-1,4.2,2.4,10,3.8,11.8l5.2,7.6L106.3,340.8L106.3,340.8z"/>
		</g>
	</g>
</g>
</svg>
